<svg width="356" height="433" viewBox="0 0 356 433" fill="none" xmlns="http://www.w3.org/2000/svg">
<path fill-rule="evenodd" clip-rule="evenodd" d="M329 154.5V276.5C329 354.183 270.532 418.211 195.201 426.977C198.123 424.56 204.194 418.56 216.197 406.437C235.012 387.436 238.301 383.54 240.099 378.124C242.371 371.286 242.193 364.915 239.889 370.579C239.201 372.273 238.365 373.382 238.034 373.043C237.702 372.704 235.829 374.367 233.872 376.738C231.914 379.109 229.755 381.665 229.073 382.418C228.391 383.17 226.171 385.916 224.138 388.518C222.106 391.121 216.009 398.479 210.589 404.87C201.425 415.677 194.349 424.675 192.972 427.22C191.901 427.328 190.826 427.426 189.749 427.512L190.358 402.604C190.871 381.62 191.58 372.118 192.934 368.055C193.962 364.973 200.77 350.839 208.064 336.646C217.404 318.47 221.296 309.645 221.228 306.794C221.097 301.347 218.701 292.728 217.45 293.209C216.896 293.422 213.048 296.754 208.897 300.614C202.838 306.249 201.351 308.372 201.351 311.392C201.351 315.385 197.691 320.079 194.577 320.079C193.561 320.079 192.729 320.897 192.729 321.898C192.729 324.363 188.209 327.1 182.374 328.167L177.561 329.048L178.299 379.377C178.623 401.49 179.131 420.764 179.546 427.986C178.865 427.995 178.183 428 177.5 428C177.045 428 176.59 427.998 176.136 427.994C176.291 424.966 176.296 419.162 176.123 413.074C175.893 404.945 175.624 382.714 175.526 363.671L175.348 329.05L170.555 327.614C167.92 326.824 164.684 324.806 163.364 323.128C162.045 321.451 160.393 320.079 159.693 320.079C157.608 320.079 153.314 313.807 153.314 310.762C153.314 308.91 150.73 305.464 145.819 300.766C141.697 296.823 137.909 293.442 137.401 293.254C136.893 293.066 135.792 296.668 134.955 301.26C133.544 308.99 133.62 309.971 135.982 314.488C137.385 317.172 138.533 320.036 138.533 320.852C138.533 321.669 139.012 322.522 139.597 322.747C140.86 323.235 160.288 361.738 162.679 368.492C163.869 371.853 164.369 381.078 164.449 401.103C164.499 413.816 164.782 422.996 165.244 427.511C164.345 427.439 163.447 427.36 162.552 427.272C162.432 427.003 162.268 426.683 162.065 426.315C160.985 424.358 140.502 399.53 126.361 383.038C123.233 379.389 120.195 375.585 119.61 374.585C119.026 373.584 117.502 371.719 116.223 370.44C113.945 368.162 113.899 368.191 113.899 371.851C113.899 379.649 117.55 384.608 139.49 406.608C151.035 418.184 157.635 424.599 160.691 427.078C84.9303 418.716 26 354.49 26 276.5V154.5C26 147.375 26.4918 140.365 27.4434 133.502C31.9344 138.152 35.3804 141.478 35.9341 141.478C36.2087 141.478 38.1358 139.887 40.2166 137.942L43.9998 134.407L41.2159 130.641C38.7201 127.265 38.4572 125.624 38.6759 114.781C38.9395 101.715 40.3576 92.5781 44.0766 82.6714C69.6683 35.2342 119.82 3 177.5 3C235.287 3 285.518 35.3538 311.065 82.9354C314.231 92.0812 316.164 101.849 316.764 111.952C317.388 122.443 317.173 124.256 314.738 129.028L312.014 134.368L315.42 137.923C317.294 139.878 318.995 141.478 319.202 141.478C319.346 141.478 322.728 138.194 327.543 133.403C328.503 140.297 329 147.341 329 154.5ZM330.188 130.763C331.381 138.501 332 146.428 332 154.5V276.5C332 357.73 269.312 424.319 189.675 430.527L189.65 431.55L185.145 431.925C182.668 432.132 180.28 431.717 179.839 431.003C179.835 430.998 179.832 430.991 179.829 430.983C179.054 430.994 178.278 431 177.5 431C176.748 431 175.998 430.995 175.249 430.984C173.215 432.661 167.589 432.677 165.862 430.596C165.854 430.587 165.847 430.577 165.839 430.567C85.9582 424.606 23 357.905 23 276.5V154.5C23 146.425 23.6195 138.494 24.8136 130.754C15.5167 120.957 3.62147 107.629 2.39464 105.142C-0.95673 98.3494 -0.754354 80.7028 2.77569 71.914L5.23787 65.7839L5.72108 81.152C6.0873 92.7998 6.73204 97.505 8.38438 100.589C13.0238 109.247 18.9332 111.889 23.1757 107.201C24.9655 105.223 25.2164 100.902 25.2289 71.7886C25.244 37.5131 25.9267 31.354 30.7477 22.0005C34.2357 15.2334 38.7917 9.77431 44.7461 5.22783C50.6846 0.693408 53.0568 0.604142 48.9662 5.06905C39.1408 15.7935 32.0077 48.439 38.0303 55.1183C41.2013 58.6349 47.3646 58.4793 54.9048 54.6921C58.221 53.0265 60.9343 52.2122 60.9343 52.8831C60.4275 53.1369 60.0194 53.5404 59.6131 54.6305C87.9532 21.2109 130.25 0 177.5 0C226.641 0 270.424 22.9426 298.722 58.701C298.424 58.279 298.123 57.8597 297.819 57.4432L293.566 51.6228L300.115 54.5814C309.753 58.9357 312.78 59.0489 316.901 55.2091C319.964 52.3561 320.506 44.3735 318.394 33.2375C316.813 24.8984 310.233 9.22253 306.405 4.67297C300.844 -1.93561 306.162 0.946274 313.945 8.75938C318.422 13.2528 323.117 19.5343 325.225 23.848L328.835 31.2384L329.451 68.5994C330.031 103.774 330.207 106.063 332.458 107.707C337.328 111.264 342.701 108.661 346.712 100.799C348.774 96.756 349.159 93.5363 349.159 80.3102C349.159 71.4364 349.62 65.127 350.221 65.7884C352.14 67.903 355.445 83.8517 355.482 91.162C355.537 102.713 351.821 108.965 334.541 126.389C333.035 127.909 331.573 129.377 330.188 130.763ZM59.107 55.2304C58.8587 55.5034 58.6484 55.7294 58.4464 55.9465C58.216 56.1942 57.9962 56.4304 57.7428 56.712C57.7428 56.7723 57.7338 56.8387 57.7169 56.9103C58.1764 56.347 58.6398 55.787 59.107 55.2304ZM154.11 356.118C156.466 360.286 159.204 367.19 160.194 371.458C162.342 380.721 162.225 421.789 160.057 419.396C158.435 417.604 139.867 394.825 131.413 384.255C127.836 379.782 123.671 375.014 122.158 373.659C120.644 372.304 118.127 369.125 116.563 366.594L113.719 361.992L119.212 349.966C122.233 343.351 126.506 332.19 128.708 325.163L132.712 312.387L134.346 317.142C135.245 319.757 136.555 322.088 137.257 322.322C137.959 322.556 138.533 323.524 138.533 324.474C138.533 326.231 145.861 341.126 147.278 342.25C147.706 342.588 148.454 344.142 148.941 345.702C149.428 347.262 151.754 351.949 154.11 356.118ZM225.194 382.908C219.578 389.435 211.012 399.966 202.967 410.233C198.352 416.122 194.161 420.973 193.653 421.01C192.326 421.111 192.526 384.905 193.9 376.122C194.769 370.571 198.506 361.868 208.915 341.149L222.774 313.565L226.63 325.752C228.751 332.455 232.799 342.799 235.626 348.74C238.453 354.681 240.763 360.501 240.76 361.673C240.754 363.514 234.27 372.358 225.194 382.908ZM177.948 320.079C190.068 320.079 192.809 321.094 187.852 323.747C182.797 326.453 170.586 326.31 167.171 323.505C163.863 320.788 166.093 320.079 177.948 320.079ZM193.653 309.988C198.932 310.37 199.911 311.624 197.684 315.152C196.749 316.632 192.957 317.058 178.598 317.295C162.026 317.568 160.491 317.402 158.183 315.094C155.075 311.986 155.959 310.36 160.683 310.494C167.051 310.675 169.736 306.66 166.602 301.642C164.541 298.342 166.124 297.251 169.521 299.63C173.198 302.205 180.957 302.148 185.419 299.512C189.299 297.22 191.488 298.03 189.121 300.883C188.298 301.874 187.803 304.243 188.021 306.147C188.379 309.265 188.939 309.647 193.653 309.988ZM159.912 296.716C161.584 296.764 165.802 305.257 164.888 306.736C164.539 307.3 162.624 307.761 160.632 307.761C157.45 307.761 157.009 307.324 157.009 304.167C157.009 299.546 158.132 296.664 159.912 296.716ZM197.748 299.447C197.798 300.971 198.072 303.466 198.356 304.99C198.811 307.434 198.364 307.761 194.569 307.761C189.616 307.761 189.081 305.999 192.427 300.709C195.143 296.415 197.628 295.826 197.748 299.447ZM151.828 284.664C153.813 291.268 155.172 298.058 154.848 299.753C154.524 301.448 153.571 302.834 152.73 302.834C150.283 302.834 137.765 288.548 134.631 282.179C132.161 277.159 131.704 274.091 131.332 260.032L130.901 243.711H134.101C136.61 243.711 137.301 244.317 137.301 246.517C137.301 251.001 140.683 254.797 144.677 254.797H148.218L148.219 263.727C148.219 270.047 149.274 276.167 151.828 284.664ZM220.081 282.961C217.135 288.566 216.747 289.054 208.423 297.6C202.886 303.284 201.65 303.814 200.559 300.972C199.647 298.593 200.317 295.066 204.4 280.767C206.702 272.703 207.587 267.073 207.303 262.291C206.915 255.757 207.049 255.392 209.974 254.993C214.393 254.39 217.364 251.264 217.364 247.216C217.364 244.271 217.871 243.711 220.536 243.711H223.709L223.308 260.648C222.957 275.458 222.552 278.259 220.081 282.961ZM175.485 265.996V281.952C175.485 290.728 174.999 297.908 174.404 297.908C173.81 297.908 172.633 297.076 171.79 296.06C170.946 295.044 169.026 294.212 167.523 294.212C165.254 294.212 164.441 293.008 162.738 287.13C153.801 256.273 152.849 251.074 155.622 248.301C156.774 247.149 159.14 248.948 166.293 256.409L175.485 265.996ZM188.151 293.978C186.703 294.188 184.855 295.158 184.046 296.134C183.236 297.109 181.81 297.908 180.877 297.908C178.415 297.908 178.465 270.81 180.936 266.129C181.901 264.3 186.354 259.2 190.831 254.797C197.527 248.21 199.191 247.118 200.214 248.638C201.987 251.273 200.866 258.001 195.494 276.968C191.457 291.219 190.407 293.651 188.151 293.978ZM153.888 265.267C155.099 269.331 157.297 277.507 158.773 283.435C161.17 293.065 161.244 294.212 159.468 294.212C156.093 294.212 148.994 267.726 150.698 261.491C151.645 258.026 151.777 258.183 153.888 265.267ZM203.92 258.492C206.093 258.492 204.452 272.81 201.026 283.743C199.025 290.126 197.237 293.737 195.949 293.995C195.29 294.127 194.795 294.228 194.501 294.03C193.62 293.436 194.548 290.155 198.272 276.968C200.643 268.571 202.583 260.979 202.583 260.096C202.583 259.214 203.185 258.492 203.92 258.492ZM192.849 221.792C192.701 231.288 193.11 234.055 195.245 238.008L197.819 242.775L187.576 252.958L177.333 263.142L167.787 253.241C162.536 247.796 158.241 242.704 158.241 241.925C158.241 241.146 158.934 239.818 159.78 238.972C160.753 238.001 161.547 232.182 161.936 223.176L162.552 208.917L177.299 209.139C185.41 209.261 192.267 209.582 192.537 209.852C192.807 210.122 192.947 215.495 192.849 221.792ZM116.864 245.901C117.423 246.86 116.662 248.409 114.916 249.864C109.188 254.638 95.5128 251.118 87.853 242.898C86.0607 240.974 80.9047 233.026 76.3951 225.236C65.718 206.79 65.6142 206.596 66.1367 206.074C66.7089 205.501 84.9963 211.293 88.4455 213.139C89.8839 213.909 91.7924 215.271 92.6865 216.165C93.5806 217.059 95.2736 218.496 96.4489 219.357C98.3067 220.72 114.329 241.553 116.864 245.901ZM143.987 246.977C146.309 248.907 148.249 250.902 148.298 251.41C148.347 251.918 147.021 252.334 145.351 252.334C142.253 252.334 139.765 249.298 139.765 245.519C139.765 243.89 140.633 244.19 143.987 246.977ZM213.899 244.943C215.431 244.943 215.089 249.189 213.422 250.856C212.609 251.669 210.566 252.334 208.881 252.334H205.817L209.358 248.639C211.305 246.606 213.348 244.943 213.899 244.943ZM272.801 235.533C269.785 241.427 262.346 247.922 256.009 250.194C248.607 252.847 244.596 252.906 241.041 250.416C237.469 247.914 237.559 247.196 242.312 240.295C255.784 220.731 261.689 214.803 270.944 211.55C285.914 206.288 288.804 205.617 288.804 207.408C288.804 208.31 287.834 210.017 286.648 211.203C285.463 212.388 284.736 213.395 285.033 213.446C285.59 213.537 280.187 223.481 276.62 228.931C275.511 230.624 273.792 233.596 272.801 235.533ZM120.995 249.002C122.528 248.704 124.745 248.715 125.922 249.024V249.027C127.1 249.335 125.846 249.577 123.137 249.563C120.427 249.549 119.463 249.297 120.995 249.002ZM157.278 237.783L154.451 243.279C152.896 246.303 151.29 248.983 150.882 249.235C150.474 249.487 148.282 247.793 146.011 245.471C143.269 242.666 140.733 241.248 138.461 241.248C133.267 241.248 131.143 240.03 131.143 237.051C131.143 235.066 132.623 233.629 136.719 231.64C144.81 227.708 148.455 228.087 153.25 233.357L157.278 237.783ZM223.802 236.822C224.455 240.237 222.961 241.248 217.267 241.248C214.882 241.248 212.047 242.72 208.827 245.629L203.977 250.01L200.838 243.473L197.699 236.937L202.297 232.98C205.031 230.626 208.286 229.006 210.33 228.977C215.664 228.905 223.118 233.246 223.802 236.822ZM230.012 249.018C231.211 248.704 232.874 248.725 233.708 249.062V249.064C234.542 249.401 233.561 249.654 231.529 249.632C229.496 249.607 228.814 249.33 230.012 249.018ZM122.521 223.717V234.946C122.521 244.106 122.18 246.175 120.673 246.175C119.657 246.175 118.826 245.706 118.826 245.135C118.826 243.519 102.963 221.464 98.1463 216.382C94.9974 213.06 91.161 210.91 83.8632 208.376L73.8854 204.912L84.962 204.528C100.194 203.999 103.64 205.28 113.884 215.283L122.521 223.717ZM274.023 207.219C260.818 211.717 257.912 214.186 245.227 231.691C239.954 238.968 235.207 245.189 234.68 245.515C232.71 246.732 232.145 244.267 232.145 234.471V224.408L240.459 216.387C252.246 205.015 254.356 204.135 268.813 204.56L280.798 204.912L274.023 207.219ZM127.448 226.467C128.159 226.467 128.679 230.368 128.679 235.705C128.679 241.043 128.159 244.943 127.448 244.943C126.736 244.943 126.216 241.043 126.216 235.705C126.216 230.368 126.736 226.467 127.448 226.467ZM228.449 226.467C229.161 226.467 229.681 230.368 229.681 235.705C229.681 241.043 229.161 244.943 228.449 244.943C227.738 244.943 227.218 241.043 227.218 235.705C227.218 230.368 227.738 226.467 228.449 226.467ZM157.728 203.549C159.099 204.076 159.473 207.39 159.473 219.038C159.473 227.189 159.027 233.858 158.482 233.858C157.938 233.858 155.612 231.918 153.314 229.547C148.46 224.539 144.916 224.106 138.211 227.699C135.684 229.054 133.059 230.162 132.379 230.162C130.143 230.162 130.927 218.411 133.298 216.39C137.905 212.465 156.074 202.915 157.728 203.549ZM215.55 226.917C211.359 224.016 206.838 224.897 202.051 229.547C199.609 231.918 196.997 233.858 196.247 233.858C194.454 233.858 195.435 206.024 197.294 204.166C198.239 203.22 200.685 203.996 205.836 206.876C209.805 209.096 214.716 211.746 216.748 212.766C222.583 215.693 223.522 217.251 223.522 223.999C223.522 229.998 223.378 230.283 220.751 229.464C219.227 228.988 216.886 227.842 215.55 226.917ZM131.574 203.535C134.131 206.656 135.879 209.767 135.458 210.448C134.278 212.357 132.384 211.918 131.495 209.531C131.054 208.345 129.622 205.905 128.312 204.108C124.016 198.216 126.812 197.724 131.574 203.535ZM227.851 202.258C226.765 203.718 225.225 206.436 224.429 208.299C222.926 211.819 221.711 212.507 220.489 210.529C219.54 208.993 227.305 198.046 228.723 198.922C229.329 199.297 228.937 200.798 227.851 202.258ZM132.643 193.211C134.534 193.211 144.712 204.499 143.943 205.743C142.406 208.23 138.515 206.314 134.416 201.052C130.188 195.625 129.642 193.211 132.643 193.211ZM223.683 194.11C225.248 195.675 223.714 198.7 218.676 203.988C217.224 205.512 215.259 206.76 214.309 206.76C210.386 206.76 211.204 203.714 216.569 198.349C220.895 194.023 222.587 193.015 223.683 194.11ZM136.275 189.425C135.276 186.649 138.497 188.785 144.546 194.911C148.183 198.593 150.533 201.883 149.836 202.315C148.696 203.019 137.252 192.141 136.275 189.425ZM217.672 188.304C219.723 188.259 218.336 190.874 213.479 196.211C210.665 199.303 207.584 201.833 206.632 201.833C205.575 201.833 205.261 201.234 205.827 200.293C207.346 197.767 216.674 188.326 217.672 188.304ZM144.851 140.387C139.241 150.916 136.07 163.647 136.07 175.636V184.057L129.591 190.455L123.112 196.854L117.093 191.405C109.268 184.322 96.0227 177.97 83.9002 175.486C70.5876 172.759 65.1032 170.065 56.5666 162.06L49.2329 155.183L53.2144 151.147L57.1959 147.112L61.2793 151.069C67.6073 157.203 69.5556 156.467 69.5593 147.945C69.5631 138.36 73.881 126.876 80.2697 119.459C85.3086 113.609 94.191 107.205 94.191 109.422C94.191 110.037 93.6054 110.901 92.8896 111.344C91.0516 112.48 86.0128 123.844 84.2591 130.808C82.481 137.87 83.2925 160.29 85.4189 162.853C86.2225 163.821 89.4942 165.005 92.6894 165.484C100.933 166.72 109.725 170.301 117.258 175.489C125.191 180.952 127.439 180.006 127.462 171.197C127.5 156.561 135.51 140.515 146.271 133.518C149.695 131.291 149.694 131.296 144.851 140.387ZM272.292 175.367C257.413 178.214 246.64 183.475 236.873 192.663C234.393 194.997 232.175 196.889 231.946 196.874C231.717 196.857 228.965 194.224 225.831 191.024C220.193 185.265 220.124 185.095 219.263 174.735C217.675 155.621 214.118 144.321 206.47 134.088L203.248 129.777L206.919 132.092C219.327 139.917 226.298 152.428 227.655 169.305C228.031 173.985 228.365 177.952 228.394 178.122C228.657 179.585 234.283 177.735 238.762 174.712C246.19 169.698 251.804 167.479 261.507 165.721L269.659 164.243L271.276 157.48C274.677 143.256 270.89 123.119 262.628 111.49L260.137 107.984L264.027 109.995C269.729 112.944 278.764 122.731 281.69 129.13C283.22 132.474 284.537 138.639 284.982 144.544C285.864 156.235 287.815 157.663 294.306 151.371L298.316 147.485L302.161 151.33L306.007 155.175L299.259 161.763C291.038 169.789 284.68 172.997 272.292 175.367ZM49.0858 150.036C51.0841 148.058 53.544 144.984 53.544 143.993C53.544 141.375 50.7571 142.754 46.9568 147.251C45.638 148.812 45.0798 150.591 45.6296 151.48C46.2336 152.458 48.1613 151.461 49.0858 150.036ZM307.38 145.885C309.357 147.779 310.975 149.78 310.975 150.331C310.975 152.473 307.582 151.166 304.33 147.772C299.707 142.946 302.505 141.215 307.38 145.885ZM46.0484 137.232C49.0107 135.401 48.4871 139.562 45.3532 142.757C41.6464 146.536 40.5324 147.039 39.5149 145.393C39.1155 144.747 40.4426 143.051 41.972 141.724C43.6753 139.656 45.6986 137.448 46.0484 137.232ZM307.764 138.12C308.614 137.27 315.902 143.794 315.902 145.404C315.902 145.955 315.209 146.374 314.362 146.337C312.419 146.251 306.725 139.159 307.764 138.12Z" fill="#419498"/>
</svg>
